<?xml version="1.0" encoding="iso-8859-1"?>
<!-- Generator: Adobe Illustrator 19.0.0, SVG Export Plug-In . SVG Version: 6.00 Build 0)  -->
<svg version="1.1" id="Capa_1" xmlns="http://www.w3.org/2000/svg" xmlns:xlink="http://www.w3.org/1999/xlink" x="0px" y="0px"
	 viewBox="0 0 463 463" style="enable-background:new 0 0 463 463;" xml:space="preserve">
<path d="M439,367.5c0-17.436-9.778-32.316-24-37.703v-26.304c0-0.009,0-0.018,0-0.027V295.5c0-12.958-10.542-23.5-23.5-23.5h-48
	c-12.958,0-23.5,10.542-23.5,23.5v0.007c0,0.009,0,0.018,0,0.027v31.973c0,0.009,0,0.018,0,0.027v31.973c0,0.009,0,0.018,0,0.027
	V360h-49v-8.5c0-4.687,3.813-8.5,8.5-8.5h8c8.547,0,15.5-6.953,15.5-15.5v-16c0-5.827-3.235-10.908-8-13.555v-21.475
	c8.423-3.895,14.551-11.924,15.77-21.471h96.73c4.142,0,7.5-3.358,7.5-7.5v-17.062c0-7.663-5.721-14.26-13.382-15.354L295,200.93
	v-1.43c0-8.547-6.953-15.5-15.5-15.5H263v-16.5c0-8.547-6.953-15.5-15.5-15.5H239v-18.234c6.933-2.342,12.424-7.833,14.766-14.766
	h20.764c4.363,9.435,13.911,16,24.971,16c15.164,0,27.5-12.336,27.5-27.5V71h16.5c4.142,0,7.5-3.358,7.5-7.5v-24
	c0-8.547-6.953-15.5-15.5-15.5h-3.986L317.74,3.34C316.35,1.253,314.008,0,311.5,0h-24c-2.508,0-4.85,1.253-6.24,3.34L267.486,24
	H263.5c-8.547,0-15.5,6.953-15.5,15.5v24c0,4.142,3.358,7.5,7.5,7.5H272v33h-18.234c-3.138-9.29-11.93-16-22.266-16
	s-19.128,6.71-22.266,16H191V71h16.5c4.142,0,7.5-3.358,7.5-7.5v-24c0-8.547-6.953-15.5-15.5-15.5h-3.986L181.74,3.34
	C180.35,1.253,178.008,0,175.5,0h-24c-2.508,0-4.85,1.253-6.24,3.34L131.486,24H127.5c-8.547,0-15.5,6.953-15.5,15.5v24
	c0,4.142,3.358,7.5,7.5,7.5H136v36.5c0,15.164,12.336,27.5,27.5,27.5c11.059,0,20.608-6.565,24.971-16h20.764
	c2.342,6.933,7.832,12.424,14.766,14.766V152h-8.5c-8.547,0-15.5,6.953-15.5,15.5V184h-16.5c-8.547,0-15.5,6.953-15.5,15.5v1.43
	L61.307,215.094C53.721,216.179,48,222.775,48,230.438V247.5c0,4.142,3.358,7.5,7.5,7.5h96.73
	c1.219,9.547,7.347,17.576,15.77,21.471v19.555c-4.454,0.261-8,3.956-8,8.475v23c0,8.547,6.953,15.5,15.5,15.5h8
	c4.687,0,8.5,3.813,8.5,8.5v8.5h-49v-0.466c0-0.009,0-0.018,0-0.027v-31.973c0-0.009,0-0.018,0-0.027v-31.973
	c0-0.009,0-0.018,0-0.027V295.5c0-12.958-10.542-23.5-23.5-23.5h-48C58.542,272,48,282.542,48,295.5v7.966c0,0.009,0,0.018,0,0.027
	v26.304c-14.222,5.387-24,20.267-24,37.703s9.778,32.316,24,37.703v26.263c0,0.009,0,0.018,0,0.027v8.007
	c0,12.958,10.542,23.5,23.5,23.5h48c12.958,0,23.5-10.542,23.5-23.5v-15.966c0-0.009,0-0.018,0-0.027v-31.973
	c0-0.009,0-0.018,0-0.027V375h49v8.5c0,12.958,10.542,23.5,23.5,23.5h32c12.958,0,23.5-10.542,23.5-23.5V375h49v16.507
	c0,0.009,0,0.018,0,0.027v31.973c0,0.009,0,0.018,0,0.027V439.5c0,12.958,10.542,23.5,23.5,23.5h48c12.958,0,23.5-10.542,23.5-23.5
	v-8.007c0-0.009,0-0.018,0-0.027v-26.263C429.222,399.816,439,384.936,439,367.5z M291.514,15h15.973l6,9h-27.973L291.514,15z
	 M263,39.5c0-0.276,0.224-0.5,0.5-0.5h8.028c0.007,0,0.014,0,0.021,0h55.943c0.005,0,0.011,0.001,0.016,0.001
	c0.005,0,0.009-0.001,0.014-0.001h7.98c0.276,0,0.5,0.224,0.5,0.5V56h-73V39.5z M312,71v36.5c0,6.893-5.607,12.5-12.5,12.5
	s-12.5-5.607-12.5-12.5V71H312z M155.514,15h15.973l6,9h-27.973L155.514,15z M127,39.5c0-0.276,0.224-0.5,0.5-0.5h8.028
	c0.007,0,0.014,0,0.021,0h55.942c0.005,0,0.011,0.001,0.016,0.001c0.005,0,0.009-0.001,0.014-0.001h7.98c0.276,0,0.5,0.224,0.5,0.5
	V56h-73V39.5z M163.5,120c-6.893,0-12.5-5.607-12.5-12.5V71h25v36.5C176,114.393,170.393,120,163.5,120z M231.5,103
	c4.687,0,8.5,3.813,8.5,8.5s-3.813,8.5-8.5,8.5s-8.5-3.813-8.5-8.5S226.813,103,231.5,103z M128,352.713l-65,6.5v-16.925l65-6.5
	V352.713z M63,374.287l65-6.5v16.925l-65,6.5V374.287z M128,303.787v16.925l-65,6.5v-16.925L128,303.787z M63,406.287l65-6.5v16.925
	l-65,6.5V406.287z M71.5,287h48c2.088,0,4,0.76,5.482,2.014l-61.967,6.197C63.169,290.658,66.911,287,71.5,287z M39,367.5
	c0-8.403,3.545-15.985,9-20.503v20.469c0,0.009,0,0.018,0,0.027v20.51C42.545,383.485,39,375.903,39,367.5z M119.5,448h-48
	c-4.687,0-8.5-3.813-8.5-8.5v-1.213l65-6.5v7.713C128,444.187,124.187,448,119.5,448z M283.5,264c-6.893,0-12.5-5.607-12.5-12.5
	s5.607-12.5,12.5-12.5s12.5,5.607,12.5,12.5S290.393,264,283.5,264z M399.57,229.943c0.245,0.035,0.43,0.248,0.43,0.496V240h-91.529
	c-2.743-5.933-7.538-10.727-13.471-13.471v-10.468L399.57,229.943z M215,167.5c0-0.276,0.224-0.5,0.5-0.5h32
	c0.276,0,0.5,0.224,0.5,0.5V184h-33V167.5z M183.5,199h96c0.276,0,0.5,0.224,0.5,0.5v24.73c-13.516,1.726-24,13.292-24,27.27
	s10.484,25.544,24,27.27V296h-97v-17.23c13.516-1.726,24-13.292,24-27.27s-10.484-25.544-24-27.27V199.5
	C183,199.224,183.224,199,183.5,199z M63,230.438c0-0.248,0.185-0.46,0.355-0.485L168,216.061v10.468
	c-5.933,2.743-10.727,7.538-13.471,13.471H63V230.438z M179.5,239c6.893,0,12.5,5.607,12.5,12.5s-5.607,12.5-12.5,12.5
	s-12.5-5.607-12.5-12.5S172.607,239,179.5,239z M175,327.5V311h112.5c0.276,0,0.5,0.224,0.5,0.5v16c0,0.276-0.224,0.5-0.5,0.5h-112
	C175.224,328,175,327.776,175,327.5z M256,383.5c0,4.687-3.813,8.5-8.5,8.5h-32c-4.687,0-8.5-3.813-8.5-8.5v-32
	c0-2.997-0.57-5.862-1.597-8.5h52.195c-1.027,2.638-1.597,5.503-1.597,8.5V383.5z M400,310.287v16.925l-65-6.5v-16.925L400,310.287z
	 M335,335.787l65,6.5v16.925l-65-6.5V335.787z M400,374.287v16.925l-65-6.5v-16.925L400,374.287z M335,399.787l65,6.5v16.925
	l-65-6.5V399.787z M424,367.5c0,8.403-3.545,15.985-9,20.503v-20.51c0-0.009,0-0.018,0-0.027v-20.469
	C420.455,351.515,424,359.097,424,367.5z M391.5,287c4.589,0,8.331,3.658,8.485,8.211l-61.967-6.197
	C339.5,287.76,341.412,287,343.5,287H391.5z M391.5,448h-48c-4.687,0-8.5-3.813-8.5-8.5v-7.713l65,6.5v1.213
	C400,444.187,396.187,448,391.5,448z"/>
<g>
</g>
<g>
</g>
<g>
</g>
<g>
</g>
<g>
</g>
<g>
</g>
<g>
</g>
<g>
</g>
<g>
</g>
<g>
</g>
<g>
</g>
<g>
</g>
<g>
</g>
<g>
</g>
<g>
</g>
</svg>
